<svg width="46" height="40" viewBox="0 0 46 40" fill="none" xmlns="http://www.w3.org/2000/svg">
<path fill-rule="evenodd" clip-rule="evenodd" d="M7.82586 13.0307C9.35219 14.3551 12.4256 16.5908 12.6259 16.5225C12.6832 16.503 12.7554 16.4202 12.7865 16.3385C12.8548 16.1593 14.0091 14.6387 14.1005 14.6075C14.136 14.5954 14.2248 14.6866 14.2977 14.8101C14.6264 15.3664 15.3265 15.959 16.0947 16.331C17.4183 16.972 18.3382 17.0649 19.6311 16.6882C20.8793 16.3245 21.7651 15.6492 22.3479 14.6173C22.5616 14.2389 22.8763 13.3617 22.9173 13.0299C22.919 13.0163 23.59 13.1185 24.4085 13.2569C25.2269 13.3955 26.2421 13.5566 26.6643 13.615L27.4318 13.7211L27.492 14.0521C27.5629 14.4416 28.0737 15.4918 28.3372 15.7894C28.4384 15.9038 30.3543 17.4117 32.5947 19.1403L36.6683 22.2833L36.2215 23.9479C35.9758 24.8635 35.7508 25.6675 35.7214 25.7346C35.6793 25.8306 35.2712 25.8259 33.8013 25.7127L31.9345 25.5689L31.5421 25.0471C31.3262 24.7602 30.9779 24.3894 30.7681 24.2232C30.2249 23.7929 29.0544 23.2912 28.3292 23.1778C26.9098 22.9559 25.3465 23.4683 24.3446 24.4837L23.9893 24.8437L23.6704 24.606C22.8938 24.0268 22.1568 23.155 21.4537 21.9837C21.303 21.7327 21.3434 21.9013 21.6651 22.8668C22.0626 24.0601 22.5219 25.0536 23.0341 25.8283C23.2517 26.1574 23.2782 26.2327 23.2223 26.3625C23.0967 26.6539 23.0337 27.6545 23.104 28.2397C23.2438 29.4034 23.7576 30.2282 25.0632 31.3845C26.4007 32.569 26.7659 32.95 26.9523 33.3545C27.1094 33.6958 27.1116 33.7548 26.9792 34.0751C26.8905 34.2901 26.7156 34.5139 26.5241 34.658C25.9738 35.072 22.151 36.9366 18.219 38.709C17.3127 39.1175 17.2845 39.1254 17.1127 39.0174C16.9575 38.9198 16.8093 38.5531 15.8758 35.9589C15.2926 34.3377 14.5975 32.3728 14.3313 31.5927C13.8111 30.0679 13.5236 29.4715 13.1439 29.13C12.5796 28.6226 12.0475 28.7742 11.0099 29.738C10.6574 30.0653 10.3496 30.3398 10.326 30.3479C10.3023 30.356 10.2141 30.0079 10.1298 29.5744C10.0454 29.1409 9.96372 28.7816 9.94814 28.7758C9.93246 28.7701 9.45454 28.9905 8.88598 29.2657C7.48057 29.9458 5.76214 30.6587 4.44613 31.1076L3.352 31.4809L2.97972 31.1302C2.16277 30.3607 1.54007 29.2196 1.37086 28.1823C1.31223 27.8227 1.31396 27.6076 1.37557 27.5866C1.42855 27.5685 2.0649 27.4989 2.78962 27.4319C4.83115 27.2432 8.43388 26.591 9.5641 26.2055C9.84334 26.1102 9.84596 26.1045 9.85429 25.5701C9.85893 25.2734 9.9013 24.7156 9.94841 24.3304C10.0076 23.8461 10.0024 23.6299 9.93156 23.6299C9.8753 23.6298 9.04676 23.6371 8.09048 23.6462C6.48659 23.6614 4.31362 23.5824 3.76722 23.4891L3.53815 23.45L3.80656 23.3551C3.95414 23.3029 4.90787 23.0694 5.92583 22.8362C7.78871 22.4094 8.11305 22.2959 8.40025 21.9697C8.58179 21.7636 8.68249 21.3639 8.60798 21.1454C8.57955 21.0621 8.58265 20.9618 8.61487 20.9226C8.64704 20.8835 9.06845 20.9245 9.55122 21.0136C10.034 21.1029 10.4619 21.1646 10.5021 21.1509C10.5423 21.1372 10.6259 20.9686 10.6879 20.7761C10.7499 20.5836 10.9395 20.0683 11.1093 19.6308C11.3704 18.9576 11.3967 18.8261 11.28 18.7741C11.2042 18.7404 10.553 18.4648 9.83287 18.1616C8.49461 17.5983 6.19322 16.4629 5.32721 15.9389C4.76904 15.6011 4.31156 15.0582 4.35611 14.7865C4.37657 14.6622 4.76822 14.3193 5.75145 13.5652C6.50319 12.9887 7.13451 12.5084 7.15426 12.4981C7.17407 12.4877 7.47626 12.7274 7.82586 13.0307ZM26.4677 16.9979C25.7456 17.4706 25.4101 17.3601 24.3218 16.2916C24.106 16.0797 23.9469 15.9003 23.9682 15.893C23.9895 15.8858 24.4515 15.9509 24.9948 16.0378C25.651 16.1427 26.1493 16.2793 26.4797 16.4449C26.7532 16.582 26.9558 16.7013 26.9299 16.7102C26.9041 16.719 26.6961 16.8485 26.4677 16.9979ZM34.729 23.4483C34.3511 23.6633 34.1809 23.7737 34.0252 23.7561C33.8681 23.7382 33.7257 23.59 33.3995 23.2872C33.1566 23.0617 32.9708 22.8728 32.9865 22.8674C33.0024 22.862 33.3111 22.9249 33.6726 23.0072C34.0341 23.0894 34.3672 23.144 34.4128 23.1285C34.4584 23.1129 34.6966 23.094 34.9422 23.0866L35.3887 23.0729L34.729 23.4483Z" fill="#262626"/>
<path fill-rule="evenodd" clip-rule="evenodd" d="M26.4677 16.9979C25.7456 17.4706 25.4101 17.3601 24.3218 16.2916C24.106 16.0797 23.9469 15.9003 23.9682 15.893C23.9895 15.8858 24.4515 15.9509 24.9948 16.0378C25.651 16.1427 26.1493 16.2793 26.4797 16.4449C26.7532 16.582 26.9558 16.7013 26.9299 16.7102C26.9041 16.719 26.6961 16.8485 26.4677 16.9979ZM34.0252 23.7561C33.8681 23.7382 33.7257 23.59 33.3995 23.2872C33.1566 23.0617 32.9708 22.8728 32.9865 22.8674C33.0024 22.862 33.3111 22.9249 33.6726 23.0072C34.0341 23.0894 34.3672 23.144 34.4128 23.1285C34.4584 23.1129 34.6966 23.094 34.9422 23.0866L35.3887 23.0729L34.729 23.4483C34.3511 23.6633 34.1809 23.7737 34.0252 23.7561Z" fill="#262626"/>
<path fill-rule="evenodd" clip-rule="evenodd" d="M25.9348 1.68886C21.3701 3.80427 19.4549 4.78018 18.994 5.22547C18.8227 5.39097 18.6561 5.66058 18.5865 5.88509C18.4779 6.23561 18.4845 6.30381 18.6732 6.77644C18.9037 7.35369 19.121 7.59676 20.5232 8.84493C21.8001 9.98158 21.9214 10.1424 22.2667 11.1574C22.5381 11.9552 22.5546 12.0567 22.5089 12.653C22.4146 13.8814 21.9251 14.8075 20.9627 15.5783C20.5769 15.8871 20.3686 15.994 19.7183 16.2164C19.1932 16.3961 18.7891 16.488 18.4851 16.4972C17.3464 16.5312 15.9476 15.9852 15.1873 15.2098C14.3876 14.3945 14.0671 13.5998 13.8847 11.9796C13.8215 11.4182 13.7061 10.9164 13.4953 10.287C13.2201 9.4646 13.1751 9.37751 12.9392 9.20806C12.4276 8.84098 11.6776 8.88077 10.8452 9.31921C10.5741 9.46202 8.94993 10.6353 7.23589 11.9265C4.43075 14.0396 4.10791 14.3036 4.00484 14.5689C3.93485 14.7489 3.92122 14.9544 3.96987 15.097C4.01368 15.2254 4.9093 16.4589 5.9601 17.8381C7.68569 20.1028 7.88883 20.3976 8.05718 20.8812C8.28299 21.5295 8.23361 21.6816 7.72286 21.9125C7.52668 22.0012 6.6253 22.2433 5.71975 22.4505C3.34002 22.995 2.63841 23.3323 1.9057 24.2844C0.342432 26.3157 0.6049 29.3016 2.51866 31.2559C2.91483 31.6605 3.2003 31.8621 3.79517 32.1572C4.69232 32.6023 5.42427 32.7686 6.46077 32.7629C7.16394 32.7591 7.2623 32.7387 8.05491 32.4324C9.0854 32.0343 9.43894 31.7914 10.5791 30.6983C11.5369 29.7798 12.073 29.3367 12.3339 29.2477C12.5577 29.1714 12.8769 29.3882 13.1285 29.7875C13.2589 29.9944 13.9138 31.7445 14.9415 34.6322C16.7189 39.6262 16.6299 39.4355 17.1978 39.4719C17.4908 39.4906 18.2435 39.1641 22.2517 37.2797C26.1114 35.4651 26.9074 35.0129 27.2299 34.4518C27.5109 33.9628 27.5275 33.6729 27.3041 33.1572C27.0925 32.6689 26.9055 32.4671 25.5387 31.2515C24.5144 30.3404 24.2062 29.9896 23.8663 29.3482C23.1387 27.9745 23.4554 25.9475 24.5706 24.8407C25.1914 24.2247 25.7446 23.8962 26.5047 23.6925C27.6184 23.394 28.4646 23.4772 29.6064 23.9975C30.1315 24.2367 30.407 24.4256 30.7932 24.811C31.6215 25.638 31.8795 26.3051 32.1445 28.3045C32.2857 29.3701 32.6158 30.4113 32.8962 30.6755C33.4224 31.1711 34.1888 31.1805 35.1166 30.7024C35.4428 30.5344 36.8736 29.5016 38.7563 28.0751C41.4068 26.0668 41.8773 25.6826 41.9886 25.4367C42.0642 25.2695 42.0901 25.0645 42.0504 24.948C42.0127 24.8376 41.1238 23.6182 40.075 22.2383C38.5514 20.2338 38.1244 19.6246 37.951 19.208C37.7486 18.7217 37.7425 18.6691 37.8604 18.429C38.0195 18.1052 38.2446 18.0239 40.2767 17.5565C42.5781 17.0272 43.0189 16.8345 43.837 15.9995C44.3662 15.4592 44.9284 14.2854 45.0528 13.4604C45.3132 11.7347 44.6722 9.85979 43.4078 8.64842C42.8178 8.08311 41.5754 7.45907 40.7404 7.30865C39.5243 7.08968 38.4052 7.22822 37.4714 7.71338C36.7162 8.10579 36.2572 8.46393 35.1908 9.49335C34.0659 10.5791 33.739 10.8069 33.4221 10.7255C32.953 10.6051 32.8411 10.3526 31.0766 5.43065C29.9419 2.26568 29.4093 0.859015 29.3088 0.761815C28.8818 0.348873 28.7453 0.386372 25.9348 1.68886ZM12.3721 9.3765C12.7731 9.46573 12.9909 9.78464 13.2004 10.5894C13.2941 10.949 13.4112 11.5844 13.4607 12.0016C13.5103 12.4187 13.6324 13.0684 13.7319 13.4456L13.9129 14.1311L13.5291 13.7224C12.1536 12.257 10.3796 10.1661 10.4282 10.0673C10.4838 9.9539 10.9427 9.72056 11.4965 9.52399C11.9597 9.35961 12.1511 9.32737 12.3721 9.3765ZM7.82586 13.0307C9.35219 14.3551 12.4256 16.5908 12.6259 16.5225C12.6832 16.503 12.7554 16.4202 12.7865 16.3385C12.8548 16.1593 14.0091 14.6387 14.1005 14.6075C14.136 14.5954 14.2248 14.6866 14.2977 14.8101C14.6264 15.3664 15.3265 15.959 16.0947 16.331C17.4183 16.972 18.3382 17.0649 19.6311 16.6882C20.8793 16.3245 21.7651 15.6492 22.3479 14.6173C22.5616 14.2389 22.8763 13.3617 22.9173 13.0299C22.919 13.0163 23.59 13.1185 24.4085 13.2569C25.2269 13.3955 26.2421 13.5566 26.6643 13.615L27.4318 13.7211L27.492 14.0521C27.5629 14.4416 28.0737 15.4918 28.3372 15.7894C28.4384 15.9038 30.3543 17.4117 32.5947 19.1403L36.6683 22.2833L36.2215 23.9479C35.9758 24.8635 35.7508 25.6675 35.7214 25.7346C35.6793 25.8306 35.2712 25.8259 33.8013 25.7127L31.9345 25.5689L31.5421 25.0471C31.3262 24.7602 30.9779 24.3894 30.7681 24.2232C30.2249 23.7929 29.0544 23.2912 28.3292 23.1778C26.9098 22.9559 25.3465 23.4683 24.3446 24.4837L23.9893 24.8437L23.6704 24.606C22.8938 24.0268 22.1568 23.155 21.4537 21.9837C21.303 21.7327 21.3434 21.9013 21.6651 22.8668C22.0626 24.0601 22.5219 25.0536 23.0341 25.8283C23.2517 26.1574 23.2782 26.2327 23.2223 26.3625C23.0967 26.6539 23.0337 27.6545 23.104 28.2397C23.2438 29.4034 23.7576 30.2282 25.0632 31.3845C26.4007 32.569 26.7659 32.95 26.9523 33.3545C27.1094 33.6958 27.1116 33.7548 26.9792 34.0751C26.8905 34.2901 26.7156 34.5139 26.5241 34.658C25.9738 35.072 22.151 36.9366 18.219 38.709C17.3127 39.1175 17.2845 39.1254 17.1127 39.0174C16.9575 38.9198 16.8093 38.5531 15.8758 35.9589C15.2926 34.3377 14.5975 32.3728 14.3313 31.5927C13.8111 30.0679 13.5236 29.4715 13.1439 29.13C12.5796 28.6226 12.0475 28.7742 11.0099 29.738C10.6574 30.0653 10.3496 30.3398 10.326 30.3479C10.3023 30.356 10.2141 30.0079 10.1298 29.5744C10.0454 29.1409 9.96372 28.7816 9.94814 28.7758C9.93246 28.7701 9.45454 28.9905 8.88598 29.2657C7.48057 29.9458 5.76214 30.6587 4.44613 31.1076L3.352 31.4809L2.97972 31.1302C2.16277 30.3607 1.54007 29.2196 1.37086 28.1823C1.31223 27.8227 1.31396 27.6076 1.37557 27.5866C1.42855 27.5685 2.0649 27.4989 2.78962 27.4319C4.83115 27.2432 8.43388 26.591 9.5641 26.2055C9.84334 26.1102 9.84596 26.1045 9.85429 25.5701C9.85893 25.2734 9.9013 24.7156 9.94841 24.3304C10.0076 23.8461 10.0024 23.6299 9.93156 23.6299C9.8753 23.6298 9.04676 23.6371 8.09048 23.6462C6.48659 23.6614 4.31362 23.5824 3.76722 23.4891L3.53815 23.45L3.80656 23.3551C3.95414 23.3029 4.90787 23.0694 5.92583 22.8362C7.78871 22.4094 8.11305 22.2959 8.40025 21.9697C8.58179 21.7636 8.68249 21.3639 8.60798 21.1454C8.57955 21.0621 8.58265 20.9618 8.61487 20.9226C8.64704 20.8835 9.06845 20.9245 9.55122 21.0136C10.034 21.1029 10.4619 21.1646 10.5021 21.1509C10.5423 21.1372 10.6259 20.9686 10.6879 20.7761C10.7499 20.5836 10.9395 20.0683 11.1093 19.6308C11.3704 18.9576 11.3967 18.8261 11.28 18.7741C11.2042 18.7404 10.553 18.4648 9.83287 18.1616C8.49461 17.5983 6.19322 16.4629 5.32721 15.9389C4.76904 15.6011 4.31156 15.0582 4.35611 14.7865C4.37657 14.6622 4.76822 14.3193 5.75145 13.5652C6.50319 12.9887 7.13451 12.5084 7.15426 12.4981C7.17407 12.4877 7.47626 12.7274 7.82586 13.0307ZM24.3218 16.2916C25.4101 17.3601 25.7456 17.4706 26.4677 16.9979C26.6961 16.8485 26.9041 16.719 26.9299 16.7102C26.9558 16.7013 26.7532 16.582 26.4797 16.4449C26.1493 16.2793 25.651 16.1427 24.9948 16.0378C24.4515 15.9509 23.9895 15.8858 23.9682 15.893C23.9469 15.9003 24.106 16.0797 24.3218 16.2916ZM33.3995 23.2872C34.0489 23.8899 33.9698 23.8804 34.729 23.4483L35.3887 23.0729L34.9422 23.0866C34.6966 23.094 34.4584 23.1129 34.4128 23.1285C34.3672 23.144 34.0341 23.0894 33.6726 23.0072C33.3111 22.9249 33.0024 22.862 32.9865 22.8674C32.9708 22.8728 33.1566 23.0617 33.3995 23.2872ZM33.2092 26.5648C33.8039 26.9526 34.2733 27.3039 34.2522 27.3454C34.2033 27.4422 32.6941 28.221 32.6232 28.1862C32.5939 28.1717 32.5193 27.8292 32.4574 27.425C32.3955 27.0207 32.2779 26.4938 32.1961 26.254C32.1143 26.0142 32.0655 25.8275 32.0876 25.839C32.1097 25.8505 32.6144 26.1771 33.2092 26.5648Z" fill="#CECECE"/>
</svg>
